<?xml version="1.0" standalone="no"?>
<!DOCTYPE svg PUBLIC "-//W3C//DTD SVG 20010904//EN"
 "http://www.w3.org/TR/2001/REC-SVG-20010904/DTD/svg10.dtd">
<svg version="1.0" xmlns="http://www.w3.org/2000/svg"
 width="512.000000pt" height="512.000000pt" viewBox="0 0 512.000000 512.000000"
 preserveAspectRatio="xMidYMid meet">
<metadata>
Created by potrace 1.14, written by Peter Selinger 2001-2017
</metadata>
<g transform="translate(0.000000,512.000000) scale(0.100000,-0.100000)"
fill="#000000" stroke="none">
<path d="M490 5109 c-210 -41 -388 -203 -456 -413 l-27 -81 0 -2035 c0 -1119
2 -2053 6 -2075 34 -230 213 -422 457 -492 14 -4 945 -9 2069 -10 l2045 -3 83
21 c85 21 175 65 244 120 87 68 174 212 198 327 8 38 11 626 11 2101 0 2241 4
2076 -56 2210 -65 141 -188 250 -354 312 l-65 24 -2055 1 c-1154 1 -2075 -2
-2100 -7z"/>
</g>
</svg>
