<?xml version="1.0" standalone="no"?>
<!DOCTYPE svg PUBLIC "-//W3C//DTD SVG 20010904//EN"
 "http://www.w3.org/TR/2001/REC-SVG-20010904/DTD/svg10.dtd">
<svg version="1.0" xmlns="http://www.w3.org/2000/svg"
 width="512.000000pt" height="512.000000pt" viewBox="0 0 512.000000 512.000000"
 preserveAspectRatio="xMidYMid meet">
<metadata>
Created by potrace 1.14, written by Peter Selinger 2001-2017
</metadata>
<g transform="translate(0.000000,512.000000) scale(0.100000,-0.100000)"
fill="#000000" stroke="none">
<path d="M2369 5045 c-2 -2 -35 -6 -74 -9 -173 -16 -418 -74 -605 -143 -256
-94 -585 -288 -763 -452 -83 -75 -186 -178 -232 -231 -26 -30 -58 -67 -70 -81
-84 -97 -293 -427 -310 -489 -1 -3 -14 -32 -30 -65 -88 -190 -164 -448 -190
-645 -16 -118 -20 -189 -20 -375 0 -121 4 -249 8 -285 90 -719 472 -1353 1063
-1764 134 -93 240 -153 401 -225 209 -94 479 -170 693 -195 25 -3 71 -8 104
-12 187 -20 520 -1 716 42 14 3 34 7 45 9 11 3 29 7 41 9 47 9 175 49 269 83
90 33 329 143 380 175 268 171 353 236 504 382 373 364 628 845 715 1351 9 50
18 106 22 125 10 56 14 510 4 565 -4 28 -14 91 -21 140 -15 105 -12 87 -28
155 -161 691 -600 1277 -1217 1624 -234 131 -575 252 -794 281 -62 8 -127 18
-145 22 -24 6 -461 13 -466 8z"/>
</g>
</svg>
