<?xml version="1.0" encoding="UTF-8"?><svg id="a" xmlns="http://www.w3.org/2000/svg" width="24.051" height="24" viewBox="0 0 24.051 24"><defs><style>.b{fill:#535353;}.c{fill:#292929;}</style></defs><circle class="b" cx="12" cy="12" r="12"/><path class="c" d="M17.259,7.192c-.995-.458-2.046-.783-3.126-.966-.137.24-.292.562-.4.822-1.149-.171-2.316-.171-3.465,0-.123-.281-.26-.555-.411-.822-1.081.183-2.134.509-3.129.97-1.973,2.941-2.508,5.813-2.241,8.64,1.158.861,2.456,1.515,3.836,1.936.31-.421.585-.867.822-1.333-.448-.167-.881-.374-1.293-.618.108-.081.212-.163.312-.245,2.428,1.148,5.244,1.148,7.672,0,.103.085.21.167.316.247-.413.245-.846.453-1.296.621.236.466.511.911.822,1.33,1.381-.419,2.679-1.074,3.836-1.936.312-3.278-.54-6.124-2.255-8.646ZM9.482,14.099c-.748,0-1.362-.685-1.362-1.526s.6-1.532,1.362-1.532,1.37.685,1.363,1.527c-.007.843-.601,1.53-1.363,1.53ZM14.516,14.099c-.748,0-1.362-.685-1.362-1.526s.6-1.532,1.362-1.532,1.37.685,1.362,1.527c-.008.843-.6,1.53-1.362,1.53Z"/></svg>