<?xml version="1.0" encoding="UTF-8"?><svg id="a" xmlns="http://www.w3.org/2000/svg" width="24.051" height="24" viewBox="0 0 24.051 24"><defs><style>.b{fill:#292929;stroke:#292929;stroke-miterlimit:10;stroke-width:.5px;}.c{fill:#535353;}</style></defs><circle class="c" cx="12" cy="12" r="12"/><path class="b" d="M15.306,7.985c-.404,0-.732.328-.732.732s.328.732.732.732.732-.328.732-.732-.328-.732-.732-.732Z"/><path class="b" d="M12.051,8.924c-1.696,0-3.076,1.38-3.076,3.076s1.38,3.076,3.076,3.076,3.076-1.38,3.076-3.076-1.38-3.076-3.076-3.076ZM12.051,13.97c-1.086,0-1.97-.884-1.97-1.97s.884-1.97,1.97-1.97,1.97.884,1.97,1.97-.884,1.97-1.97,1.97Z"/><path class="b" d="M14.493,18.245h-4.986c-2.069,0-3.751-1.683-3.751-3.751v-4.987c0-2.069,1.683-3.751,3.751-3.751h4.986c2.069,0,3.752,1.683,3.752,3.751v4.987c0,2.069-1.683,3.751-3.752,3.751ZM9.507,6.93c-1.421,0-2.577,1.156-2.577,2.576v4.987c0,1.421,1.156,2.577,2.577,2.577h4.986c1.421,0,2.577-1.156,2.577-2.577v-4.987c0-1.421-1.156-2.576-2.577-2.576h-4.986Z"/></svg>