<?xml version="1.0" encoding="UTF-8"?><svg id="a" xmlns="http://www.w3.org/2000/svg" width="24.051" height="24" xmlns:xlink="http://www.w3.org/1999/xlink" viewBox="0 0 24.051 24"><defs><style>.c{fill:#fff;stroke:#fff;stroke-miterlimit:10;stroke-width:.5px;}.d{fill:url(#b);}</style><linearGradient id="b" x1="3.515" y1="3.515" x2="20.485" y2="20.485" gradientUnits="userSpaceOnUse"><stop offset=".001" stop-color="#ffe185"/><stop offset=".209" stop-color="#ffbb36"/><stop offset=".376" stop-color="#ff5176"/><stop offset=".524" stop-color="#f63395"/><stop offset=".739" stop-color="#a436d2"/><stop offset="1" stop-color="#5f4eed"/></linearGradient></defs><circle class="d" cx="12" cy="12" r="12"/><path class="c" d="M15.306,7.985c-.404,0-.732.328-.732.732s.328.732.732.732.732-.328.732-.732-.328-.732-.732-.732Z"/><path class="c" d="M12.051,8.924c-1.696,0-3.076,1.38-3.076,3.076s1.38,3.076,3.076,3.076,3.076-1.38,3.076-3.076-1.38-3.076-3.076-3.076ZM12.051,13.97c-1.086,0-1.97-.884-1.97-1.97s.884-1.97,1.97-1.97,1.97.884,1.97,1.97-.884,1.97-1.97,1.97Z"/><path class="c" d="M14.493,18.245h-4.986c-2.069,0-3.751-1.683-3.751-3.751v-4.987c0-2.069,1.683-3.751,3.751-3.751h4.986c2.069,0,3.752,1.683,3.752,3.751v4.987c0,2.069-1.683,3.751-3.752,3.751ZM9.507,6.93c-1.421,0-2.577,1.156-2.577,2.576v4.987c0,1.421,1.156,2.577,2.577,2.577h4.986c1.421,0,2.577-1.156,2.577-2.577v-4.987c0-1.421-1.156-2.576-2.577-2.576h-4.986Z"/></svg>