<?xml version="1.0" encoding="UTF-8"?><svg id="a" xmlns="http://www.w3.org/2000/svg" width="24.051" height="24" xmlns:xlink="http://www.w3.org/1999/xlink" viewBox="0 0 24.051 24"><defs><style>.c{fill:#ff1753;}.c,.d,.e{fill-rule:evenodd;}.d{fill:#fff;}.e{fill:#00c9d0;}.f{fill:url(#b);}</style><linearGradient id="b" x1="3.515" y1="3.515" x2="20.485" y2="20.485" gradientUnits="userSpaceOnUse"><stop offset="0" stop-color="#23004a"/><stop offset=".957" stop-color="#010003"/><stop offset="1" stop-color="#000"/></linearGradient></defs><circle class="f" cx="12" cy="12" r="12"/><path class="c" d="M14.513,10.125c.872.623,1.94.989,3.093.989v-2.218c-.218,0-.436-.023-.649-.068v1.746c-1.153,0-2.221-.366-3.093-.989v4.527c0,2.265-1.837,4.1-4.102,4.1-.845,0-1.631-.255-2.284-.693.745.761,1.784,1.234,2.933,1.234,2.266,0,4.102-1.836,4.102-4.1v-4.527h0ZM15.314,7.887c-.445-.486-.738-1.115-.801-1.81v-.285h-.616c.155.883.683,1.638,1.417,2.095h0ZM8.911,15.781c-.249-.326-.383-.725-.383-1.135,0-1.036.84-1.875,1.877-1.875.193,0,.385.03.569.088v-2.268c-.215-.029-.432-.042-.649-.037v1.765c-.184-.058-.376-.088-.569-.088-1.036,0-1.876.84-1.876,1.876,0,.732.42,1.366,1.032,1.675Z"/><path class="d" d="M13.864,9.585c.872.623,1.94.989,3.093.989v-1.746c-.644-.137-1.214-.473-1.642-.941-.733-.457-1.262-1.212-1.417-2.095h-1.617v8.86c-.004,1.033-.842,1.869-1.877,1.869-.609,0-1.151-.29-1.494-.74-.612-.309-1.032-.943-1.032-1.675,0-1.036.84-1.876,1.876-1.876.199,0,.39.031.569.088v-1.765c-2.226.046-4.016,1.864-4.016,4.099,0,1.116.446,2.128,1.169,2.867.653.438,1.438.693,2.284.693,2.265,0,4.102-1.836,4.102-4.1v-4.527Z"/><path class="e" d="M16.957,8.828v-.472c-.581,0-1.15-.162-1.642-.469.436.477,1.01.806,1.642.941ZM13.898,5.792c-.015-.084-.026-.169-.034-.255v-.285h-2.232v8.86c-.004,1.033-.842,1.869-1.876,1.869-.304,0-.59-.072-.844-.2.343.45.884.74,1.494.74,1.034,0,1.873-.836,1.877-1.869V5.792h1.617ZM10.324,10.553v-.503c-.187-.025-.375-.038-.563-.038-2.266,0-4.102,1.836-4.102,4.1,0,1.42.722,2.671,1.819,3.407-.723-.739-1.169-1.751-1.169-2.867,0-2.235,1.79-4.053,4.016-4.099h0Z"/></svg>