<?xml version="1.0" encoding="UTF-8"?><svg id="a" xmlns="http://www.w3.org/2000/svg" width="24.051" height="24" viewBox="0 0 24.051 24"><defs><style>.b{fill:#535353;}.c{fill:#292929;}</style></defs><circle class="b" cx="12" cy="12" r="12"/><path class="c" d="M17.18,10.714h-.002c-.11.011-.221.016-.332.017-1.216,0-2.35-.613-3.015-1.63v5.55c0,2.265-1.836,4.102-4.102,4.102s-4.102-1.836-4.102-4.102,1.836-4.102,4.102-4.102c.086,0,.169.008.254.013v2.021c-.084-.01-.167-.025-.254-.025-1.156,0-2.093.937-2.093,2.093s.937,2.093,2.093,2.093,2.178-.911,2.178-2.067l.02-9.425h1.934c.182,1.734,1.58,3.088,3.32,3.216v2.246Z"/></svg>