<?xml version="1.0" encoding="UTF-8"?><svg id="a" xmlns="http://www.w3.org/2000/svg" width="24.051" height="24" xmlns:xlink="http://www.w3.org/1999/xlink" viewBox="0 0 24.051 24"><defs><style>.c,.d{fill:#fff;}.d{fill-rule:evenodd;}.e{fill:url(#b);}</style><linearGradient id="b" x1="3.515" y1="3.515" x2="20.485" y2="20.485" gradientUnits="userSpaceOnUse"><stop offset="0" stop-color="#00fb73"/><stop offset="1" stop-color="#00b25b"/></linearGradient></defs><circle class="e" cx="12" cy="12" r="12"/><path class="c" d="M5.821,18.194l.888-3.314c-.503-.907-.768-1.924-.768-2.956,0-3.374,2.745-6.118,6.118-6.118s6.119,2.745,6.119,6.118-2.745,6.119-6.119,6.119c-1.013,0-2.013-.256-2.908-.741l-3.331.892ZM9.318,16.06l.21.125c.77.459,1.646.701,2.533.701,2.736,0,4.962-2.226,4.962-4.962s-2.226-4.962-4.962-4.962-4.962,2.226-4.962,4.962c0,.903.251,1.793.726,2.573l.129.211-.496,1.85,1.861-.499Z"/><path class="d" d="M14.336,12.775c-.252-.151-.579-.319-.876-.197-.228.093-.373.449-.52.631-.076.093-.166.108-.282.061-.854-.34-1.509-.911-1.981-1.697-.08-.122-.066-.218.031-.332.142-.168.321-.358.36-.584.039-.226-.067-.49-.161-.691-.119-.257-.253-.624-.51-.769-.237-.134-.549-.059-.76.113-.364.297-.54.761-.535,1.222.001.131.018.261.048.388.074.304.214.587.372.857.119.203.249.401.388.59.457.621,1.026,1.16,1.684,1.563.329.201.683.378,1.05.499.411.136.778.277,1.222.193.465-.088.924-.376,1.108-.824.055-.133.082-.281.051-.421-.063-.29-.456-.462-.69-.602Z"/></svg>