<?xml version="1.0" encoding="UTF-8"?><svg id="a" xmlns="http://www.w3.org/2000/svg" width="24.051" height="24" viewBox="0 0 24.051 24"><defs><style>.b{fill:#535353;}.c{fill:#292929;}</style></defs><circle class="b" cx="12" cy="12" r="12"/><path class="c" d="M19.285,10.098c0-1.766-1.431-3.197-3.197-3.197H7.912c-1.766,0-3.197,1.432-3.197,3.197v3.805c0,1.766,1.431,3.197,3.197,3.197h8.176c1.766,0,3.197-1.431,3.197-3.197v-3.805ZM14.477,12.285l-3.666,1.814c-.144.078-.632-.026-.632-.19v-3.723c0-.166.492-.269.636-.188l3.509,1.909c.147.084.302.297.153.377Z"/></svg>