<?xml version="1.0" encoding="UTF-8"?><svg id="a" xmlns="http://www.w3.org/2000/svg" width="34" height="34" xmlns:xlink="http://www.w3.org/1999/xlink" viewBox="0 0 34 34"><defs><style>.d{opacity:.75;}.e{fill:url(#c);}.f{fill:url(#b);}</style><linearGradient id="b" x1="17" y1="0" x2="17" y2="34" gradientUnits="userSpaceOnUse"><stop offset="0" stop-color="#fff"/><stop offset="1" stop-color="#9d9d9c"/></linearGradient><linearGradient id="c" x1="15.352" y1="11.029" x2="15.352" y2="19.402" xlink:href="#b"/></defs><g class="d"><path class="f" d="M17,0C7.611,0,0,7.611,0,17s7.611,17,17,17,17-7.611,17-17S26.389,0,17,0ZM25.184,25.226c-.286.286-.631.487-.971.568-.11.026-.219.039-.323.039-.286,0-.54-.097-.725-.283l-.489-.488-3.822-3.765c-1.087.644-2.321.982-3.593.982-3.895,0-7.064-3.169-7.064-7.065s3.169-7.065,7.064-7.065,7.065,3.17,7.065,7.065c0,1.344-.378,2.64-1.097,3.772l3.492,3.439h.002s.365.361.365.361l.42.42c.474.474.331,1.36-.326,2.018Z"/><path class="e" d="M15.352,11.029c-2.309,0-4.187,1.878-4.187,4.187s1.878,4.187,4.187,4.187,4.187-1.878,4.187-4.187-1.878-4.187-4.187-4.187Z"/></g></svg>